<svg version="1.1" id="Layer_1" xmlns="http://www.w3.org/2000/svg" xmlns:xlink="http://www.w3.org/1999/xlink" x="0px" y="0px"
	 width="100%" viewBox="0 0 1200 1200" enable-background="new 0 0 1200 1200" xml:space="preserve">
<path fill="#fff" opacity="1.000000" stroke="#000000" stroke-linecap="round" stroke-linejoin="round" stroke-width="18.000000"
	d="
M392.500000,394.000000 
	C392.887299,401.180145 390.572998,407.624939 387.549255,414.023285 
	C377.495087,435.298523 371.011078,457.749817 368.125153,481.015533 
	C362.442505,526.827515 369.509888,570.771729 389.546082,612.477844 
	C391.326447,616.183716 391.901672,620.061890 392.530762,624.202271 
	C389.077545,627.065979 384.973785,627.980286 380.500214,628.022522 
	C370.444000,628.117432 360.381958,627.405273 350.480743,630.437134 
	C326.625153,637.742249 311.897308,654.020447 308.350739,678.051758 
	C303.852173,708.534119 321.219482,733.676697 348.986145,742.543396 
	C354.565125,744.324890 360.165649,745.049744 366.000061,745.040405 
	C411.499939,744.967407 457.000397,744.903809 502.499603,745.096069 
	C509.962799,745.127625 516.355042,743.231689 522.000000,738.500000 
"/>
<path fill="#fff" opacity="1.000000" stroke="#000000" stroke-linecap="round" stroke-linejoin="round" stroke-width="19.000000"
	d="
M811.500000,631.000000 
	C818.182556,632.113159 824.529480,629.745422 830.983887,628.879883 
	C855.907104,625.537292 876.922668,631.869385 892.477356,652.517090 
	C898.700195,660.777405 901.936707,670.125366 903.091431,680.489807 
	C906.436401,710.512634 887.417480,734.335144 863.460876,742.383606 
	C848.839478,747.295837 833.830078,745.253113 819.001831,742.490051 
	C814.189819,741.593384 809.930298,740.127625 808.395508,734.528625 
	C807.683350,731.930725 805.433289,729.996155 803.535095,727.967163 
	C794.176392,717.963684 788.195374,706.541321 786.859253,692.513428 
	C785.154480,674.613892 790.637878,659.551025 802.535706,646.532654 
	C805.125610,643.698853 807.950989,641.000549 809.405151,637.461060 
	C810.558044,634.654663 811.458252,632.185608 809.942749,628.326172 
	C808.056519,623.522400 810.044861,617.629028 812.448303,612.475891 
	C817.293518,602.087402 821.639954,591.478760 824.992188,580.497620 
	C830.665833,561.911926 833.919128,542.978516 835.188477,523.512268 
	C836.832703,498.296997 833.540771,473.802032 827.484497,449.503876 
	C824.166077,436.190186 818.911804,423.536621 813.332275,411.075104 
	C811.407471,406.776031 810.164551,402.539124 809.470215,397.796906 
	C812.922424,394.934021 817.029358,394.075470 821.499084,393.962616 
	C829.002808,393.773163 836.473816,394.024597 844.017578,393.152130 
	C865.381653,390.681396 887.032227,373.016083 892.478088,349.494934 
	C900.492859,314.878143 879.735779,283.755707 843.993469,277.034760 
	C842.544678,276.762360 841.000000,277.000000 839.500000,277.000000 
	C792.166687,277.000000 744.833252,277.030090 697.500061,276.951263 
	C693.003296,276.943756 688.493530,277.436707 685.107483,280.134888 
	C680.835876,283.538727 676.724304,282.775391 671.985229,282.104248 
	C655.903992,279.826752 639.771179,278.029572 623.502197,277.439453 
	C599.500244,276.568848 575.499634,277.105255 551.499878,277.038818 
	C504.000244,276.907349 456.499817,277.065613 409.000244,276.922028 
	C402.628754,276.902771 396.812347,277.973938 391.500000,281.500000 
"/>
<path fill="#fff" opacity="1.000000" stroke="#000000" stroke-linecap="round" stroke-linejoin="round" stroke-width="18.000000"
	d="
M653.000000,622.000000 
	C655.537842,615.991821 660.202026,611.963257 665.496948,608.495361 
	C693.201355,590.350830 710.426331,564.745239 716.257874,532.456299 
	C722.040100,500.440552 715.926758,470.416504 696.573181,443.447479 
	C680.247192,420.697510 658.765320,405.661621 631.992188,398.027283 
	C617.259827,393.826416 602.226807,393.519379 586.992126,394.357361 
	C574.838684,395.025848 562.922302,396.936188 551.024109,399.130646 
	C549.233032,399.460968 548.248596,399.113586 546.992615,398.260895 
	C542.010132,394.878265 536.507202,393.906006 530.499756,393.926910 
	C490.166901,394.067383 449.833313,394.017334 409.500031,393.977936 
	C404.499878,393.973022 399.497986,393.711182 394.500702,393.484375 
	C391.173340,393.333313 389.692383,391.170959 391.049835,388.021484 
	C392.968719,383.569305 395.361816,379.445587 398.948364,375.947083 
	C407.667511,367.441986 413.037842,356.888977 414.883911,344.981995 
	C417.870850,325.716187 412.375977,308.758118 398.966431,294.531647 
	C396.003448,291.388153 393.331604,288.176636 391.986145,284.004456 
	C391.512756,282.536591 390.484467,281.401489 388.993988,281.023651 
	C374.184906,277.269501 359.100006,274.959473 344.029968,278.141907 
	C321.036865,282.997589 300.961487,303.758789 298.818481,329.484894 
	C297.597534,344.142303 300.825592,357.214569 309.093445,368.934082 
	C317.973511,381.521332 330.123505,389.475861 345.483185,392.583069 
	C357.323975,394.978394 368.899536,393.974365 380.496338,391.482941 
	C383.820648,390.768799 387.161743,391.068237 390.500000,391.000000 
"/>
<path fill="#fff" opacity="1.000000" stroke="#000000" stroke-linecap="round" stroke-linejoin="round" stroke-width="19.000000"
	d="
M549.000000,400.000000 
	C546.243042,405.480774 542.213074,409.656067 537.036072,413.054962 
	C508.378845,431.869415 490.112610,458.329224 485.327881,492.046539 
	C478.528137,539.963135 495.051361,579.123596 535.017090,607.475891 
	C559.186462,624.621948 586.351257,629.840088 615.508911,627.616882 
	C627.290039,626.718628 638.929565,625.207825 650.484497,622.921631 
	C652.290161,622.564331 653.518005,622.640686 655.030090,623.707336 
	C659.950012,627.177673 665.492859,628.093628 671.500244,628.073059 
	C712.333069,627.933411 753.166687,627.982910 794.000000,628.022095 
	C799.000122,628.026855 804.000000,628.333374 809.000000,628.500061 
"/>
<path fill="#fff" opacity="1.000000" stroke="#000000" stroke-linecap="round" stroke-linejoin="round" stroke-width="19.000000"
	d="
M392.500000,625.000000 
	C397.151062,627.468750 399.785583,631.721069 402.531036,635.979980 
	C418.163330,660.229736 437.320190,681.209045 460.476501,698.531433 
	C475.727356,709.940002 492.283630,719.043762 509.537598,726.917603 
	C513.910278,728.913086 517.511230,731.474304 519.967041,735.520020 
	C521.505493,738.054443 523.669434,739.156189 526.497620,739.518494 
	C543.944641,741.753784 561.361145,744.239746 578.999817,744.510681 
	C651.831360,745.629272 724.667053,744.673645 797.499878,745.019470 
	C802.413025,745.042847 806.439453,742.787964 810.500000,740.500000 
"/>
<path fill="#fff" opacity="1.000000" stroke="#000000" stroke-linecap="round" stroke-linejoin="round" stroke-width="18.000000"
	d="
M680.500000,284.000000 
	C683.057495,289.923828 687.947205,293.546936 693.528503,295.933380 
	C737.943665,314.924103 772.841980,345.043396 799.011292,385.492706 
	C801.861084,389.897522 804.585205,394.458435 809.500000,397.000000 
"/>
<path fill="#fff" opacity="1.000000" stroke="#000000" stroke-linecap="round" stroke-linejoin="round" stroke-width="9.000000"
	d="
M514.500000,872.500000 
	C508.930756,873.176514 504.140869,868.906433 498.495972,869.978821 
	C497.691650,870.131592 496.827301,869.934692 496.001038,870.011047 
	C492.030151,870.378174 488.751221,872.226379 487.620239,876.035706 
	C486.539734,879.674805 489.037720,882.061829 491.973328,884.039612 
	C495.388855,886.340637 499.337677,887.332642 503.023376,888.946594 
	C509.501556,891.783325 512.206909,894.757629 511.500000,899.000000 
	C510.717804,903.694336 506.748383,906.025696 499.500061,905.988037 
	C497.825256,905.979370 496.178223,906.049561 494.486481,905.545410 
	C488.521271,903.768005 488.500000,903.839355 488.500000,897.500000 
"/>
<path fill="#fff" opacity="1.000000" stroke="#000000" stroke-linecap="round" stroke-linejoin="round" stroke-width="9.000000"
	d="
M550.000000,888.000000 
	C556.479858,887.046631 562.999390,887.594727 569.500244,887.521912 
	C577.642761,887.430664 579.966248,883.569214 575.999939,876.500000 
	C572.930054,871.028320 564.337891,868.164307 558.000000,870.500061 
	C551.596619,872.859924 547.641235,879.770630 549.032837,886.493225 
	C549.719666,889.811401 548.150391,892.885071 549.710144,896.621033 
	C552.765564,903.939392 561.763184,908.875061 570.965332,904.428284 
	C573.510620,903.198242 575.985718,903.726257 578.500000,903.500000 
"/>
<path fill="#fff" opacity="1.000000" stroke="#000000" stroke-linecap="round" stroke-linejoin="round" stroke-width="10.000000"
	d="
M626.500000,903.000000 
	C626.500000,886.748291 626.500000,870.496582 626.500000,854.601624 
	C621.245300,851.297302 614.846497,855.140076 610.500000,850.500000 
"/>
<path fill="#fff" opacity="1.000000" stroke="#000000" stroke-linecap="round" stroke-linejoin="round" stroke-width="9.000000"
	d="
M455.500000,868.000000 
	C451.360107,869.386353 449.145172,872.151428 447.869537,876.461365 
	C446.048798,882.613098 443.295258,888.485596 441.015594,894.505859 
	C439.827484,897.643494 438.404907,900.570068 435.500000,902.500000 
"/>
<path fill="#fff" opacity="1.000000" stroke="#000000" stroke-linecap="round" stroke-linejoin="round" stroke-width="10.000000"
	d="
M369.500000,874.500000 
	C374.463074,880.769592 377.962921,887.896423 381.497314,895.001343 
	C384.416443,900.869263 387.527771,906.541138 394.500000,908.500000 
"/>
<path fill="#fff" opacity="1.000000" stroke="#000000" stroke-linecap="round" stroke-linejoin="round" stroke-width="9.000000"
	d="
M427.000000,923.750000 
	C431.576477,920.939209 437.297394,908.317932 435.334320,903.568481 
	C433.825958,899.919067 430.829468,896.941406 429.439148,893.021606 
	C427.164337,886.608398 424.263641,880.411743 422.122009,873.959534 
	C421.320282,871.544189 420.029022,870.247498 418.000000,869.250000 
"/>
<path fill="#fff" opacity="1.000000" stroke="#000000" stroke-linecap="round" stroke-linejoin="round" stroke-width="10.000000"
	d="
M816.500000,871.500000 
	C816.500000,882.000000 816.500000,892.500000 816.500000,903.000000 
"/>
<path fill="#fff" opacity="1.000000" stroke="#000000" stroke-linecap="round" stroke-linejoin="round" stroke-width="10.000000"
	d="
M768.500000,854.500000 
	C765.883667,853.528442 763.125061,853.812500 760.508301,854.080811 
	C755.143982,854.630798 752.502319,857.973145 752.500977,863.500000 
	C752.497803,876.666687 752.500000,889.833313 752.500000,903.000000 
"/>
<path fill="#fff" opacity="1.000000" stroke="#000000" stroke-linecap="round" stroke-linejoin="round" stroke-width="10.000000"
	d="
M832.500000,854.500000 
	C828.455078,853.588257 824.380310,853.470276 820.523865,855.057983 
	C817.834839,856.165161 816.167603,858.122559 816.419128,861.506042 
	C816.639954,864.477234 816.166626,867.500000 816.000000,870.500000 
"/>
<path fill="#fff" opacity="1.000000" stroke="#000000" stroke-linecap="round" stroke-linejoin="round" stroke-width="9.000000"
	d="
M390.500000,851.500000 
	C379.551208,854.551208 374.574066,863.603088 369.532745,872.518494 
	C367.490265,876.130615 363.869629,876.771484 360.500000,878.000000 
"/>
<path fill="#fff" opacity="1.000000" stroke="#000000" stroke-linecap="round" stroke-linejoin="round" stroke-width="10.000000"
	d="
M357.500000,855.500000 
	C357.500000,860.166687 357.865082,864.871277 357.384857,869.488037 
	C356.998230,873.204895 360.035095,876.100464 359.375305,879.475647 
	C358.723663,882.809387 357.226105,885.903748 357.429352,889.503967 
	C357.710724,894.488098 357.500000,899.500000 357.500000,904.500000 
"/>
<path fill="#fff" opacity="1.000000" stroke="#000000" stroke-linecap="round" stroke-linejoin="round" stroke-width="9.000000"
	d="
M831.000000,871.000000 
	C822.666687,871.000000 814.333313,871.000000 806.000000,871.000000 
"/>
<path fill="#fff" opacity="1.000000" stroke="#000000" stroke-linecap="round" stroke-linejoin="round" stroke-width="9.000000"
	d="
M614.000000,905.000000 
	C618.370850,904.973572 622.885376,903.883667 626.972046,904.161255 
	C631.265564,904.452942 635.655945,904.694702 640.000000,905.000000 
"/>
<path fill="#fff" opacity="1.000000" stroke="#000000" stroke-linecap="round" stroke-linejoin="round" stroke-width="9.000000"
	d="
M806.000000,905.000000 
	C813.333313,903.920837 820.666687,904.905457 828.000000,905.000000 
"/>
<path fill="#fff" opacity="1.000000" stroke="#000000" stroke-linecap="round" stroke-linejoin="round" stroke-width="9.000000"
	d="
M743.000000,905.000000 
	C750.000000,903.842590 757.000000,905.061951 764.000000,905.000000 
"/>
<path fill="#fff" opacity="1.000000" stroke="#000000" stroke-linecap="round" stroke-linejoin="round" stroke-width="10.000000"
	d="
M689.500000,870.000000 
	C674.470093,870.605225 671.245361,890.386780 678.429199,900.052612 
	C682.703613,905.803711 688.582153,906.211121 694.475159,905.333313 
	C700.292480,904.466858 704.020569,900.091675 705.413818,894.478577 
	C707.251038,887.076660 706.711304,879.937561 701.015625,873.985046 
	C697.965637,870.797424 694.001282,870.413147 690.000000,870.000000 
"/>
</svg>